<?xml version="1.0" standalone="no"?>
<!DOCTYPE svg PUBLIC "-//W3C//DTD SVG 20010904//EN"
 "http://www.w3.org/TR/2001/REC-SVG-20010904/DTD/svg10.dtd">
<svg version="1.0" xmlns="http://www.w3.org/2000/svg"
 width="103.000000pt" height="78.000000pt" viewBox="0 0 103.000000 78.000000"
 preserveAspectRatio="xMidYMid meet">

<g transform="translate(0.000000,78.000000) scale(0.100000,-0.100000)"
fill="#000000" stroke="none">
<path d="M260 601 c0 -26 -4 -29 -45 -35 -56 -9 -59 -26 -5 -26 l40 0 0 -61
c0 -62 14 -104 31 -94 5 4 9 40 9 81 0 71 1 75 26 84 48 19 54 14 47 -35 -4
-36 -2 -50 12 -65 21 -24 54 -26 81 -5 18 13 17 14 -17 15 -52 0 -67 21 -46
65 18 38 54 48 76 21 15 -18 -8 -39 -29 -26 -21 14 -30 12 -30 -4 0 -18 33
-30 59 -21 42 13 32 69 -14 81 -14 3 -56 4 -94 2 -69 -4 -69 -3 -75 24 -7 37
-26 36 -26 -1z"/>
<path d="M562 593 c-22 -9 -34 -41 -22 -63 13 -24 40 -26 80 -5 27 14 29 13
45 -11 23 -35 37 -18 29 33 -5 35 -10 42 -36 47 -35 7 -77 7 -96 -1z m72 -12
c7 -11 -15 -30 -40 -33 -28 -4 -30 15 -3 29 29 15 36 16 43 4z"/>
<path d="M863 378 c-20 -25 -24 -82 -7 -106 12 -17 25 -22 58 -22 27 0 48 6
56 15 11 13 7 15 -28 15 -45 0 -59 11 -37 30 18 15 20 51 3 68 -15 15 -33 15
-45 0z"/>
<path d="M722 325 c-27 -22 -30 -23 -45 -8 -14 14 -20 15 -41 3 -36 -19 -48
-90 -16 -90 5 0 12 11 16 25 7 28 19 32 28 10 8 -22 29 -18 56 10 17 18 27 22
36 14 17 -14 28 5 20 37 -8 30 -17 30 -54 -1z"/>
<path d="M482 328 c3 -7 18 -14 34 -16 28 -2 28 -2 10 13 -24 18 -49 20 -44 3z"/>
<path d="M374 293 c-3 -13 -14 -23 -25 -23 -30 0 -31 -17 0 -23 25 -5 29 -12
36 -53 9 -62 14 -74 32 -74 12 0 13 11 8 65 -5 45 -4 65 4 65 6 0 11 5 11 10
0 6 -6 10 -14 10 -7 0 -21 10 -29 23 l-16 22 -7 -22z"/>
<path d="M520 236 c0 -58 17 -106 30 -86 20 31 5 130 -20 130 -5 0 -10 -20
-10 -44z"/>
</g>
</svg>
